<?xml version="1.0" encoding="UTF-8"?>
<svg id="Capa_1" data-name="Capa 1" xmlns="http://www.w3.org/2000/svg" viewBox="0 0 166.785 471.819">
  <defs>
    <style>
      .cls-1 {
        fill: #e1811e;
      }
    </style>
  </defs>
  <path class="cls-1" d="M48.18,124.703s.748,1.184,1.963,1.745c1.184.592,1.402.717,1.09,1.932-.28,1.246-1.34,3.334-1.34,3.334,0,0,2.399.872,2.524,1.651,0,0,5.328-4.58,9.814-6.449,4.486-1.9,11.465-3.957,12.151-4.393.685-.405,11.029-9.939,11.652-10.281,0,0-.156-.748.498-1.215.654-.498,5.515-4.954,6.293-5.234s1.184-.218,1.371-.53c.156-.28.249-1.028.997-1.184s1.277-.685,1.464-1.122-.748-1.495-.218-1.963.218-1.246.093-2.306c-.093-1.028-1.371-13.677-1.651-16.419-.312-2.773-6.262-23.398-6.574-23.927-.28-.561.093-1.09.093-1.09,0,0-2.337-4.081-3.24-4.331,0,0-.654.405-1.184,1.184-.53.81-1.122,1.558-1.838,2.056s-1.62,2.555-2.243,4.019-5.265,13.771-6.075,16.107c-.779,2.337-4.486,13.397-5.888,16.481-1.371,3.116-7.384,12.93-8.287,14.3-.935,1.371-1.838,3.894-3.396,4.829-1.558.966-2.337,1.776-2.804,2.929-1.028,2.586-3.77,6.356-3.77,6.356,0,0,.467.623.343,1.215-.125.623-1.838,2.306-1.838,2.306ZM80.021,440.308c.312-.093,1.184-.623.717-1.402-.467-.748-1.714-.841-2.586-.841s-1.495.187-1.495.187c0,0,.249.436.374.872.125.374.125.872.249.872.904-.031,2.43.405,2.742.312ZM81.391,441.71c.343.249,2.866.156,3.427.218.53.031.343.436.343.436,0,0-3.271-.249-4.081-.125-.779.125-2.897-.28-2.897-.28,0,0,2.679,5.203,4.424,7.072,1.776,1.869,9.658,8.132,11.465,10.842,1.838,2.679,1.34,4.954.062,6.449-1.246,1.495-8.63,7.072-17.291,4.642-9.596-2.711-9.876-8.724-12.711-11.528-2.804-2.835-2.742-.561-7.758-4.268-5.016-3.676-5.639-7.135-5.639-8.879,0-1.776.935-3.271.935-3.271,0-4.081,2.15-9.565,2.15-10.281,0-.685-.623-2.804-.561-3.489s1.869-1.869,1.869-1.869c0,0-.187-2.835-.374-5.328-.187-2.524-2.524-8.848-2.835-10.157s.81-1.932.81-1.932c0,0-5.328-24.208-5.92-26.981-.592-2.742-3.084-6.325-3.676-12.275-.592-5.92,2.306-15.889,2.306-15.889,0,0-.592-.717-.28-1.464.28-.748,1.059-3.178,1.028-4.268s1.122-1.402,1.122-1.402c.436-1.527-2.337-14.643-2.337-14.643,0,0-2.991-.405-3.084-2.243-.093-1.838-6.013-11.528-8.599-17.603-2.586-6.106-1.682-12.805-3.676-16.139-1.994-3.334-4.331-10.593-4.331-10.593-2.617-1.09-4.455-4.268-4.611-9.347-.093-2.555-2.492-15.702-2.586-21.902-.093-6.169,4.673-9.689,4.518-11.185-.187-1.495.156-6.854.156-6.854,0,0-2.711-.685-4.518-2.991-1.215-1.589-1.682-4.486-1.994-6.106-.498-2.679,1.682-11.029,1.745-12.026.093-.997-.654-3.521-1.495-5.265s.841-5.67.997-6.854c.187-1.153-.748-5.67-2.679-9.689-1.9-3.988-7.259-12.524-9.752-14.923-2.524-2.43-2.087-5.515-4.113-12.462-1.714-6.013.343-13.366.343-13.366,0,0-2.991-8.163,1.184-14.518,2.897-4.424,7.415-8.848,7.415-8.848,0,0-2.648-2.929-2.492-9.035.156-6.075,3.24-13.615,13.397-15.734,10.157-2.119,16.917,1.745,16.917,1.745,3.521-3.084,6.387-13.49,10.655-19.659,4.237-6.169,9.939-12.244,12.275-15.671,2.337-3.427,8.287-15.765,8.879-17.198.592-1.402.561-2.679.312-3.614-.249-.966-1.215-1.9-2.866-3.24-1.62-1.34-1.776-2.866-2.119-3.832s-2.056-2.96-3.832-3.894c-1.527-.779-2.274-1.527-2.087-2.15.156-.623,1.527-1.309,3.583-.997,2.056.28,3.77,1.807,4.518,2.96.748,1.122.966,1.62,1.527,1.495.592-.125,1.153-.28,1.153-.28-.81-1.059-1.433-1.963-2.025-2.804s-1.371-3.302-1.495-3.863c-.125-.53.405-1.059.904-1.059.062,0,.125,0,.187.031-2.119-3.334-3.334-7.29-3.334-11.528C63.944,9.895,73.571.237,85.473.237s21.56,9.658,21.56,21.56c0,9.814-6.574,18.07-15.547,20.687-.561.498-1.09,1.059-.592,1.153.841.156,2.181.592,4.144,1.589s2.399,3.894,2.804,5.328c.405,1.464,1.495,3.302,1.495,3.302,0,0,.343-.249.997.685.685.904,12.119,32.215,13.428,38.539.125.717,3.489,10.655,2.306,13.958-.872,2.492-5.39,9.409-8.007,11.59-2.648,2.181-4.767,6.387-5.515,7.322-.748.966-1.963,1.402-1.963,1.402,0,0-8.381,11.06-16.014,14.768-4.144,1.994-8.537,4.954-8.537,5.701s-.374,4.518-.374,4.518c0,0,.498,2.991,5.39,14.394,4.891,11.403,10.904,22.183,10.655,28.819-.249,6.636.374,11.777.872,15.266.498,3.521-2.368,9.658-2.679,10.094s-.374,2.087-.748,2.648c-.405.561-1.714.187-2.773,1.184-.966.904-5.608,3.147-6.356,3.521.125,0,.343.125.779.654.748.966.561,2.524,1.309,2.461s4.268-1.62,5.016-.748,8.91,9.689,10.344,11.777c1.433,2.056,3.832,6.636,4.331,12.338s7.322,17.977,9.066,21.591c1.745,3.645,3.521,3.022,5.328,5.701,1.807,2.711,2.306,4.518,5.515,7.851,2.212,2.306,3.583,6.636,5.39,8.692s4.954,3.084,4.954,3.084c0,0-.062.374-1.464,1.807-1.371,1.433-5.515,3.178-6.823,5.141-1.309,1.932-2.368,2.555-2.368,2.555.592,2.586,3.489,7.01,4.331,8.692s1.776,5.92,1.838,7.851c.093,1.932,0,5.016,2.087,9.596,2.087,4.611,6.325,24.239,6.823,29.411s2.212,18.943,2.212,18.943c.872.218.966,1.527.997,2.212.031.717.997,5.109,1.34,7.29.343,2.15,1.714,6.761,2.212,9.347s1.869,5.639,2.929,5.296c1.028-.343,1.402,1.34,1.527,2.492.125,1.184.81,2.524.81,2.524,0,0,.561.249,2.337.592,1.745.312,2.43,1.028,2.711,1.059.28.062,2.461.187,2.866.187.436,0,.561.498.218.436-.343-.031-2.555-.125-2.804.187-.249.28-1.371.654-1.371.654,0,0,.125.748.031,1.184-.062.405-1.34.654-1.34.654,0,0,1.589,3.209,2.897,4.673,1.309,1.464,7.477,7.446,9.596,9.627,2.15,2.15,2.524,5.701,2.524,5.701,0,0,.28.623.374,1.34.062.717-.872,2.555-4.767,3.926-3.894,1.371-12.774,1.215-17.136-2.243-4.331-3.458-4.704-7.322-5.172-7.976-.467-.685-2.742-.498-3.926-.685-1.153-.156-7.415-1.963-9.752-3.832s-3.053-4.331-3.053-6.231c0-1.869.904-3.24.904-3.24,0,0,.093-1.963.561-3.739.249-.935,2.025-6.574,2.212-7.135.156-.53-.312-3.427-.187-3.957s2.399-1.122,2.399-1.122c0,0-.966-5.826-1.433-7.727-.467-1.932-2.243-5.67-2.742-6.823-.498-1.122.249-1.682.249-1.682,0,0-6.574-21.03-7.197-22.183-.623-1.122-5.951-8.381-7.197-12.711-1.246-4.299-.935-16.325-2.679-19.597-1.776-3.271-7.913-12.088-7.913-12.088,0,0-.498.125-1.122,0s-3.427-3.707-5.951-6.823c-2.492-3.147-7.072-8.91-9.066-11.652-2.025-2.773-8.91-9.035-8.91-9.035,0,0-.498,8.91.187,11.839.685,2.96,1.807,8.786,1.745,12.524-.062,3.77.904,5.141,0,7.29-.872,2.119-7.758,4.486-7.758,4.486-.249,3.957-1.807,7.664-1.932,8.474s.81,4.268.623,6.823-1.246,5.016-1.246,5.016c.436.374.312,2.056-.125,2.742s-.872,3.458-1.153,5.141c-.249,1.682-1.246,1.932-1.246,1.932,0,0,.187,16.481.125,19.379-.062,2.866,1.09,27.884,1.09,27.884,0,0,.748.53,1.059,1.122.28.561.156,4.736.405,6.013.249,1.309.966,3.178,1.682,5.795.685,2.648,4.175,9.16,4.175,9.16,0,0,.966-.467,1.869.093.904.53,1.059,3.676,1.059,3.676,0,0-.187.53.498,1.059.654.561.436,1.433.374,1.682-.093.249.156.623.156.623,0,0,1.09-.343,2.119-.249,1.059.093,2.43.467,3.053,1.62.623,1.184-.997,2.056-.997,2.056.53.343.623.717.966.966Z"/>
</svg>