<?xml version="1.0" encoding="UTF-8"?>
<svg id="Capa_1" data-name="Capa 1" xmlns="http://www.w3.org/2000/svg" viewBox="0 0 466.182 474.814">
  <defs>
    <style>
      .cls-1 {
        fill: #e73a44;
      }
    </style>
  </defs>
  <g>
    <path class="cls-1" d="M465.927,284.681s-1.609,9.132-3.647,10.115c-2.033,1.028-28.916.745-31.993,2.245-3.077,1.5-9.736,7.556-12.763,6.001-3.027-1.555-8.043-5.18-8.043-5.18,0,0-8.736,7.544-11.785,11.089-3.098,3.505-55.74,42.602-60.327,43.575-4.543.968-13.724,2.414-20.752-2.188-7.077-4.642-36.792-29.803-36.792-29.803l-11.218,5.979s-34.265-28.243-37.315-28.247c-3.055-.05-32.814,33.188-32.814,33.188l-17.703-5.734-43.88,22.949s.322,24.362-9.94,33.884c-10.257,9.567-28.199,30.711-28.199,30.711l-19.056,29.77s1.451,9.682-3.202,16.214c-4.648,6.577-17.817,6.43-17.817,6.43l-16.644-11.805s-19.768-3.245-23.824-6.833c-4.011-3.592-17.447-31.111-17.943-34.155-.45-3.049,5.136-7.583,5.136-7.583,0,0,26.803,14.992,32.352,14.512,5.598-.44,14.279-5.429,14.279-5.429l4.989,8.68s18.047-26.753,31.993-57.089c13.991-30.341,11.529-37.461,11.529-37.461,0,0,9.268-12.105,16.959-19.632,7.646-7.523,43.043-44.8,43.043-44.8l5.652-10.094,4.615-2.478-1.408-13.236s-9.105-3.114-10.106-6.652c-.961-3.588,4.773-21.291,2.842-32.971-1.89-11.73-5.255-32.047-2.494-57.409,2.761-25.362,14.174-51.114,13.697-52.658-.523-1.539-5.039-5.626-5.039-5.626,0,0-9.637,1.447-11.137-1.63-1.5-3.077-6.491-15.307-6.491-15.307l-6.077-1.559.576-8.115-6.549-2.603-2.92-14.218s-6.609-.094-7.059-3.142c-.495-3.044,6.749-20.22,16.485-27.776C154.834,1.102,172.131.232,172.131.232l-1.066,2.021c9.132,1.609,22.726,13.409,25.199,21.074,2.468,7.62,2.273,30.488,2.273,30.488,0,0,7.653-6.568,9.686-4.501,1.988,2.071,17.562,22.497,17.562,22.497l29.802,14.502-.082,7.609s18.77,3.712,26.346,4.799c7.621,1.082,39.592,3.936,39.592,3.936,0,0,4.615-5.572,8.131-5.024,3.561.544,26.753,18.047,27.232,20.046.483,2.044,4.473,10.736,2.935,11.714-1.533,1.023-14.138-8.24-14.138-8.24,0,0-2.564,6.044-4.075,5.517-1.551-.478-5.039-5.626-5.039-5.626,0,0-29.009,7.354-36.097,5.262-7.088-2.092-14.149-5.69-14.149-5.69l-21.161-1.737s24.063,18.005,27.07,21.564c3.011,3.604,7.414,19.855,6.338,27.976-1.076,8.121-3.723,18.224-3.723,18.224,0,0,9.973,16.861,12.479,20.426,2.511,3.61,3.957,13.247,3.957,13.247l-7.594-2.587s2.479,5.07.985,5.588c-1.544.477-9.577-7.708-9.577-7.708,0,0,1.961,6.671.423,7.648-1.538.978-7.109-.088-13.631-7.29-6.562-7.153-7.535-11.741-7.535-11.741l-6.641,7.556-3.371-3.567s-1.794-8.144.653-12.674c2.397-4.57,10.605-14.154,10.605-14.154l-10.686-33.081-23.395-15.935-9.908,29.329,12.295,44.294s9.01,3.078,13.199,7.517c.972,1.038,1.673,2.104,1.929,3.261,1.45,6.132,2.397,15.774,2.397,15.774l50.349,45.658-2.12,8.593,17.518,26.052s6.196-13.654,14.349-17.133,38.689-9.261,42.788-12.778,2.647-13.198,2.647-13.198c0,0,7.191-7.522,10.729-8.523,3.588-.961,15.676,7.262,23.824,6.833,8.103-.424,20.311-3.865,29.917,2.793,9.565,6.707,14.577,13.838,14.577,13.838Z"/>
    <path class="cls-1" d="M139.72,403.997c19.453.183,35.113,16.14,34.935,35.638-.183,19.453-16.14,35.113-35.593,34.931-19.498-.178-35.158-16.135-34.976-35.588.178-19.498,16.135-35.158,35.633-34.98Z"/>
  </g>
  <g>
    <path class="cls-1" d="M465.927,284.681s-1.609,9.132-3.647,10.115c-2.033,1.028-28.916.745-31.993,2.245-3.077,1.5-9.736,7.556-12.763,6.001-3.027-1.555-8.043-5.18-8.043-5.18,0,0-8.736,7.544-11.785,11.089-3.098,3.505-55.74,42.602-60.327,43.575-4.543.968-13.724,2.414-20.752-2.188-7.077-4.642-36.792-29.803-36.792-29.803l-11.218,5.979s-34.265-28.243-37.315-28.247c-3.055-.05-32.814,33.188-32.814,33.188l-17.703-5.734-43.88,22.949s.322,24.362-9.94,33.884c-10.257,9.567-28.199,30.711-28.199,30.711l-19.056,29.77s1.451,9.682-3.202,16.214c-4.648,6.577-17.817,6.43-17.817,6.43l-16.644-11.805s-19.768-3.245-23.824-6.833c-4.011-3.592-17.447-31.111-17.943-34.155-.45-3.049,5.136-7.583,5.136-7.583,0,0,26.803,14.992,32.352,14.512,5.598-.44,14.279-5.429,14.279-5.429l4.989,8.68s18.047-26.753,31.993-57.089c13.991-30.341,11.529-37.461,11.529-37.461,0,0,9.268-12.105,16.959-19.632,7.646-7.523,43.043-44.8,43.043-44.8l5.652-10.094,4.615-2.478-1.408-13.236s-9.105-3.114-10.106-6.652c-.961-3.588,4.773-21.291,2.842-32.971-1.89-11.73-5.255-32.047-2.494-57.409,2.761-25.362,14.174-51.114,13.697-52.658-.523-1.539-5.039-5.626-5.039-5.626,0,0-9.637,1.447-11.137-1.63-1.5-3.077-6.491-15.307-6.491-15.307l-6.077-1.559.576-8.115-6.549-2.603-2.92-14.218s-6.609-.094-7.059-3.142c-.495-3.044,6.749-20.22,16.485-27.776C154.834,1.102,172.131.232,172.131.232l-1.066,2.021c9.132,1.609,22.726,13.409,25.199,21.074,2.468,7.62,2.273,30.488,2.273,30.488,0,0,7.653-6.568,9.686-4.501,1.988,2.071,17.562,22.497,17.562,22.497l29.802,14.502-.082,7.609s18.77,3.712,26.346,4.799c7.621,1.082,39.592,3.936,39.592,3.936,0,0,4.615-5.572,8.131-5.024,3.561.544,26.753,18.047,27.232,20.046.483,2.044,4.473,10.736,2.935,11.714-1.533,1.023-14.138-8.24-14.138-8.24,0,0-2.564,6.044-4.075,5.517-1.551-.478-5.039-5.626-5.039-5.626,0,0-29.009,7.354-36.097,5.262-7.088-2.092-14.149-5.69-14.149-5.69l-21.161-1.737s24.063,18.005,27.07,21.564c3.011,3.604,7.414,19.855,6.338,27.976-1.076,8.121-3.723,18.224-3.723,18.224,0,0,9.973,16.861,12.479,20.426,2.511,3.61,3.957,13.247,3.957,13.247l-7.594-2.587s2.479,5.07.985,5.588c-1.544.477-9.577-7.708-9.577-7.708,0,0,1.961,6.671.423,7.648-1.538.978-7.109-.088-13.631-7.29-6.562-7.153-7.535-11.741-7.535-11.741l-6.641,7.556-3.371-3.567s-1.794-8.144.653-12.674c2.397-4.57,10.605-14.154,10.605-14.154l-10.686-33.081-23.395-15.935-9.908,29.329,12.295,44.294s9.01,3.078,13.199,7.517c.972,1.038,1.673,2.104,1.929,3.261,1.45,6.132,2.397,15.774,2.397,15.774l50.349,45.658-2.12,8.593,17.518,26.052s6.196-13.654,14.349-17.133,38.689-9.261,42.788-12.778,2.647-13.198,2.647-13.198c0,0,7.191-7.522,10.729-8.523,3.588-.961,15.676,7.262,23.824,6.833,8.103-.424,20.311-3.865,29.917,2.793,9.565,6.707,14.577,13.838,14.577,13.838Z"/>
    <path class="cls-1" d="M139.72,403.997c19.453.183,35.113,16.14,34.935,35.638-.183,19.453-16.14,35.113-35.593,34.931-19.498-.178-35.158-16.135-34.976-35.588.178-19.498,16.135-35.158,35.633-34.98Z"/>
  </g>
</svg>