<?xml version="1.0" encoding="UTF-8"?>
<svg id="Capa_1" data-name="Capa 1" xmlns="http://www.w3.org/2000/svg" viewBox="0 0 439.629 465.227">
  <defs>
    <style>
      .cls-1 {
        fill: #e87b25;
      }

      .cls-2 {
        fill: #ed7920;
      }

      .cls-3 {
        fill: #ec7b23;
      }

      .cls-4 {
        fill: #efeeed;
      }

      .cls-5 {
        fill: #211d1c;
      }

      .cls-6 {
        fill: #1576b4;
      }

      .cls-7 {
        fill: #1374b0;
      }

      .cls-8 {
        fill: #e8842f;
      }

      .cls-9 {
        fill: #f5f8f8;
      }

      .cls-10 {
        fill: #0f71ab;
      }

      .cls-11 {
        fill: #0c70aa;
      }

      .cls-12 {
        fill: #eb7920;
      }

      .cls-13 {
        fill: #0f6ea9;
      }

      .cls-14 {
        fill: #ed7d22;
      }

      .cls-15 {
        fill: #ec781f;
      }

      .cls-16 {
        fill: #ed781d;
      }

      .cls-17 {
        fill: #0a6fab;
      }

      .cls-18 {
        fill: #0379b7;
      }

      .cls-19 {
        fill: #0e71ad;
      }

      .cls-20 {
        fill: #010101;
      }

      .cls-21 {
        fill: #0a6ca5;
      }

      .cls-22 {
        fill: #ed781e;
      }

      .cls-23 {
        fill: #e73a44;
      }
    </style>
  </defs>
  <g>
    <path class="cls-8" d="M438.883,148.743c1.716,4.974-1.412,4.344-2.943,6.484-10.111,14.162-18.181,32.082-21.363,49.264-.869,4.659-1.738,20.57-3.226,22.851-1.336,2.042-2.769.934-3.758-.608l2.107-17.866c-13.293-1.879-6.712,11.968-8.851,18.832-.63,2.042-2.27,1.955-4.171,1.803v-18.463h-9.775v16.834c0,1.14-3.084,2.064-4.344,1.629v-16.834c0-2.389-8.83-1.553-10.861-1.629v18.463c0,.217-4.344.217-4.344,0v-19.549c0-.456-7.374-.717-8.678-2.172l2.096,18.941c-6.853,5.311-4.952-9.123-5.496-12.837-1.075-7.331-3.16-14.271-5.3-21.309-3.551-11.697-8.862-24.589-15.824-34.689-3.725-5.398-12.023-9.709,2.259-10.915,9.59-.804,18.952,2.617,28.77-.011,22.025,2.107,48.634-2.585,70.106-.054,1.586.185,2.932-.076,3.595,1.835ZM418.476,177.98l12.957-24.502h-18.463c.369,2.487-7.787,28.118-5.963,28.249l11.469-3.747ZM415.131,183.888c-1.857,1.662-8.667,1.564-9.568,2.357-1.412,1.238-2.292,15.379-3.454,18.268,11.36,2.617,10.405-12.946,13.022-20.624ZM408.625,153.478h-21.721v30.41c3.041.065,12.881.206,14.673-2.161,2.172-2.856,5.333-23.296,7.049-28.249ZM399.937,188.222c-2.683.402-12.153-1.238-13.033,1.64-1.14,3.671.825,12.446,0,16.834,15.096,2.845,11.545-7.765,13.033-18.474ZM382.559,206.696v-17.377c-1.857-1.064-14.086-1.846-14.141-.532,1.607,3.486,1.119,14.586,2.672,16.888,1.39,2.064,8.797.608,11.469,1.021ZM382.559,183.888v-30.41h-21.721c.901,4.464,5.007,27.325,7.027,29.356,2.335,2.346,11.1.467,14.695,1.053ZM366.258,205.599c.63-.717-1.444-17.051-2.422-18.192-.88-1.043-9.872-2.889-11.675-1.911,3.204,3.671,3.182,14.304,5.311,17.247.771,1.064,6.994,2.302,8.786,2.856ZM361.359,181.749c2.302.033,1.542.315,1.151-1.151-1.053-3.899-6.049-26.609-7.646-27.119h-17.92l13.619,24.936c1.955,2.096,7.885,3.291,10.796,3.334Z"/>
    <path class="cls-4" d="M431.433,153.478l-12.957,24.502-11.469,3.747c-1.825-.13,6.332-25.762,5.963-28.249h18.463Z"/>
    <path class="cls-4" d="M405.562,186.245c.901-.793,7.711-.695,9.568-2.357-2.617,7.679-1.662,23.242-13.022,20.624,1.162-2.889,2.042-17.03,3.454-18.268Z"/>
    <path class="cls-4" d="M386.904,153.478h21.721c-1.716,4.952-4.876,25.392-7.049,28.249-1.792,2.368-11.632,2.226-14.673,2.161v-30.41Z"/>
    <path class="cls-4" d="M386.904,189.861c.88-2.878,10.35-1.238,13.033-1.64-1.488,10.709,2.064,21.32-13.033,18.474.825-4.388-1.14-13.163,0-16.834Z"/>
    <path class="cls-4" d="M382.559,189.318v17.377c-2.672-.413-10.079,1.043-11.469-1.021-1.553-2.302-1.064-13.402-2.672-16.888.054-1.314,12.283-.532,14.141.532Z"/>
    <path class="cls-4" d="M382.559,153.478v30.41c-3.595-.586-12.359,1.292-14.695-1.053-2.02-2.031-6.125-24.893-7.027-29.356h21.721Z"/>
    <path class="cls-12" d="M377.097,55.211c1.77,9.21-6.006,30.551-14.075,36.362-.272-10.252-2.324-19.799-6.006-29.313-1.075-2.78-5.648-9.818-5.821-11.621-.586-6.31,24.122-4.681,25.903,4.572Z"/>
    <path class="cls-14" d="M365.182,20.978c5.582,7.374,10.405,17.877,10.85,27.152-6.69-5.409-12.685-6.082-21.081-5.354-2.085.185-4.29,1.857-5.734,1.89-2.52.065-10.872-10.491-9.633-12.826,1.705-3.226,19.039-11.523,23.426-13.033.706.804,1.835,1.727,2.172,2.172Z"/>
    <path class="cls-4" d="M363.836,187.407c.977,1.14,3.052,17.475,2.422,18.192-1.792-.554-8.015-1.792-8.786-2.856-2.129-2.943-2.107-13.576-5.311-17.247,1.803-.977,10.796.869,11.675,1.911Z"/>
    <path class="cls-4" d="M362.511,180.597c.391,1.466,1.151,1.184-1.151,1.151-2.911-.043-8.841-1.238-10.796-3.334l-13.619-24.936h17.92c1.597.51,6.592,23.22,7.646,27.119Z"/>
    <path class="cls-2" d="M346.176,52.485c7.364,9.449,15.781,33.44,12.283,44.855-1.857,6.049-28.574,16.367-35.634,14.857,1.531-3.866,3.519-6.712,4.898-10.85,5.496-16.487,3.345-36.829,18.452-48.862Z"/>
    <path class="cls-16" d="M355.951,365.261c-1.227,1.01-1.759,2.628-3.801,2.161-.684-.684,8.623-14.857,9.644-16.964,17.844-36.785,19.245-78.534,1.227-115.525,11.23,1.368,24.969,1.857,36.416,1.13,5.897-.38,17.258-.641,18.735-7.331,2.281-10.35,1.705-20.69,4.876-32.05.554-1.977,1.238-6.375,2.943-7.364,5.039,52.794-11.328,108.118-44.551,149.302-6.625,8.211-17.453,19.973-25.49,26.641Z"/>
    <path class="cls-3" d="M329.342,1.439c10.698.228,21.32,6.256,29.324,13.022-3.942,1.021-23.025,15.053-24.447,14.944-.532-.043-7.928-6.44-8.08-6.951-.228-.793,3.595-8.222,4.29-11.252.934-4.127,1.988-5.572-1.086-9.764Z"/>
    <path class="cls-22" d="M334.24,36.378l9.145,11.056c-18.746,12.598-13.033,50.937-24.382,63.741-3.486,3.942-33.744-7.755-35.102-14.879-1.531-7.993,40.087-55.009,50.339-59.918Z"/>
    <path class="cls-4" d="M335.848,293.581c.576,12.816-1.607,27.825-9.753,38.002-.815-2.813-1.358-4.996-1.032-8.026.261-2.52,6.223-25.36,7.038-26.674.706-1.151,2.433-2.78,3.747-3.302Z"/>
    <path class="cls-23" d="M296.977,393.173l32.354-8.917c-75.221,47.83-173.391,39.848-241.118-17.355-37.556-31.724-65.675-80.315-69.476-129.796,20.375,6.125,42.009,4.714,62.905,2.248,8.884,48.243,38.132,93.065,77.925,121.357,40.228,28.596,88.243,41.879,137.409,32.463Z"/>
    <path class="cls-18" d="M327.887,118.691c16.682-.815,31.561-10.329,42.194-22.764l7.353-9.536c.988-1.292,2.889-1.412,4.04-.261v.011c6.668,9.905,14.151,19.701,19.549,30.41,1.249,2.487,7.342,16.41,9.286,22.851.413,1.368-.967,2.585-2.281,2.031-13.076-5.506-25.816-10.296-39.587-14.021-6.831-1.857-13.337-4.062-20.407-5.115-6.343-.956-13.706-.358-19.213-1.434-1.597-.315-1.857.521-1.716-1.412.033-.413.369-.739.782-.76Z"/>
    <path class="cls-4" d="M327.691,295.807c1.151,3.226-3.269,24.143-5.452,27.043-1.13,1.51-18.072,6.603-19.365,6.353-2.118-.413-14.89-16.128-14.64-18.507.13-1.26,6.267-21.537,6.929-22.514.923-1.379,14.217-5.919,16.519-6.299,2.476-.413,4.16-.869,6.234.858.815.663,9.46,12.197,9.775,13.065Z"/>
    <path class="cls-1" d="M314.984.647c7.081-.804,13.945-1.325,12.186,8.384-.272,1.488-4.475,9.308-6.125,9.612-.793.152-11.534-5.018-15.194-6.234-.315-.098-.597-.282-.901-.402-2.552-.934-8.004-1.39-11.447-1.89-1.347-.206,2.531-3.986,3.258-4.344,3.106-1.586,14.575-4.714,18.224-5.126Z"/>
    <path class="cls-15" d="M320.393,26.571c3.866-.728,7.103,3.573,10.014,5.81-20.168,17.149-37.426,37.122-50.48,60.255-7.103-7.309-12.729-18.583-13.565-28.781-.728-9.08-.597-11.719,6.592-17.268,10.633-8.189,21.787-8.927,33.538-13.174,4.181-1.51,11.11-6.31,13.902-6.842Z"/>
    <path class="cls-4" d="M321.74,257.73c-3.063,2.324-16.106-8.667-19.223-10.643-5.55-3.53-14.075-4.583-15.52-12.153,12.892,4.388,27.315,10.893,34.743,22.797Z"/>
    <path class="cls-12" d="M315.788,22.053c1.434,1.966-7.526,5.658-8.971,6.267-13.283,5.593-27.945,7.364-39.37,17.638-.098-7.255,3.465-14.358,7.342-20.342,3.703-5.724,8.037-12.175,15.455-12.24,4.746.478,12.772,2.183,16.291,3.258,1.13.413,8.765,4.735,9.253,5.419Z"/>
    <path class="cls-4" d="M313.095,258.229c2.628,3.541,3.877,17.898-.337,20.386-2.064,1.227-16.584,5.474-18.637,5.191-1.271-.174-21.428-12.186-22.08-13.293-1.13-1.933-2.074-18.767-1.173-20.212,4.659-1.292,13.109-6.962,17.681-6.658,3.367.228,22.471,11.784,24.545,14.586Z"/>
    <path class="cls-4" d="M299.508,330.551c.586,1.444-7.82,16.812-9.308,17.833-3.03,2.064-24.426,3.475-28.259,2.27-1.835-.576-12.403-13.923-12.816-15.498-.38-1.412,9.449-18.55,10.709-19.31.923-.554,10.481-1.173,12.805-1.314,3.215-.206,12.034-1.173,14.336.228.869.521,12.153,14.857,12.533,15.791Z"/>
    <path class="cls-4" d="M295.142,149.112c.869,1.607,2.78,12.262,2.487,14.39-1.412,10.307-9.666,15.303-19.625,13.598-1.499-.25-13.304-5.713-13.826-6.267-.087-.098-.413-2.292.554-2.172,5.419,1.955,14.39-.348,18.93-3.845,5.343-4.116,4.8-9.894,8.276-14.532.554-.749,1.379-1.998,2.194-1.998.348,0,.684.228,1.01.825Z"/>
    <path class="cls-4" d="M294.946,354.575c1.216.934,2.237,1.119,1.814,3.074-14.032,4.018-28.021,6.386-42.357,2.161-.641-.869,6.277-6.321,8.189-6.484,1.966-.174,4.225,1.292,6.473,1.162,7.385-.402,19.897-4.572,25.881.087Z"/>
    <path class="cls-5" d="M295.772,145.604l-1.64,2.683c-.815,0-1.64,1.249-2.194,1.998-3.475,4.638-2.932,10.415-8.276,14.532-4.54,3.497-13.511,5.8-18.93,3.845l-.033-3.052c5.506-.043,12.11-.934,14.358-2.14,8.395-4.529,8.341-22.471,16.715-17.866Z"/>
    <path class="cls-4" d="M267.328,250.236c-.652,6.136,2.704,13.858.967,19.766-.576,1.955-19.267,17.03-21.982,17.106-1.825.054-18.604-3.193-19.158-3.997-2.324-3.367-2.802-17.16-.402-20.983,1.683-2.683,19.397-16.725,21.841-17.127,4.029-.673,13.923,5.213,18.735,5.235Z"/>
    <path class="cls-5" d="M158.569,234.64c31.148,4.485,50.654-5.886,77.904-13.869,1.108-.326,2.226-.641,3.356-.956,11.491-3.204,56.562-9.471,62.308-14.803,1.575-1.477,2.248-4.04,3.313-5.908-12.957,2.248-26.685,4.377-39.337,7.896-7.961,2.216-22.091,9.416-30.269,11.632-1.173.315-2.216.521-3.106.608-4.16.391-9.742-.988-14.705-.586-11.925.967-25.653,5.952-38.186,7.429-9.731,1.151-19.495.804-29.063,2.259-2.769,4.247,4.518,5.832,7.787,6.299ZM161.045,238.68c-3.052-2.096-13.087.608-15.009-7.776-4.062-17.681,27.966-21.504,38.49-29.4,3.15-.272,8.2,5.648,11.252,3.595.836-.554,1.542-2.074,1.064-2.737-.315-.424-10.948-2.987-8.689-5.43,2.541-2.748,19.245,3.573,20.635,2.15.272-.272.424-2.628-.728-3.269-1.868-1.032-7.689-1.499-10.133-2.172,4.779-8.917,15.52.25,21.135-1.086,1.977-.467,1.727-2.009-.076-3.128-2.107-1.314-17.779-1.825-5.789-6.06,5.376-1.89,15.672,3.084,17.822,2.693,1.173-.217,2.563-2.531.586-3.823-2.661-1.738-10.079,0-11.958-3.769,7.505-4.996,15.172.315,22.807-2.205-2.074-4.355-7.244-2.607-10.861-3.78,6.321-2.15,13.728-21.254,16.269-22.851,8.841-5.561,8.167,13.815,8.819,14.597.847,1.01,4.16,1.401,8.015,1.379l.033,3.052c-.967-.119-.641,2.074-.554,2.172.521.554,12.327,6.017,13.826,6.267,9.959,1.705,18.213-3.291,19.625-13.598.293-2.129-1.618-12.783-2.487-14.39-.326-.597-.663-.825-1.01-.825l1.64-2.683c.945.51,1.988,1.303,3.16,2.444.206,2.987.652,4.084,1.086,6.516,3.139,4.192,4.583,8.536,4.344,13.033,2.335,6.929,5.105,12.968,5.43,20.635.25,6.158-1.064,16.454-5.952,20.646-1.499,1.292-4.757,2.042-5.463,3.236-1.966,3.356,1.51,7.831-7.049,6.527v-4.355c-5.876.348-12.457-.163-10.861,7.613-7.103,1.727-5.604-3.258-6.636-4.214-2.9-2.704-49.514,11.121-56.247,14.097.532,7.798-5.517,10.079-8.232,2.15-1.358,1.792-7.841,1.803-8.135,2.118-1.01,1.086,3.084,6.603-5.973,6.506-.554,0-.5-7.07-8.58-4.225-2.824.999-.956,5.105-2.378,5.343-.901.152-5.713.163-5.919-.054-.51-.521.869-4.094-.619-4.377-1.13-.206-8.841-.315-9.156.022-.673.706,2.27,6.614-4.735,4.214-2.129-.739-1.455-3.866-2.813-4.8Z"/>
    <path class="cls-4" d="M247.605,290.594c1.379,1.14,9.851,22.427,9.253,24.382-.38,1.249-9.405,16.954-10.274,17.464-2.791,1.618-17.898-1.955-20.44-4.627-1.705-1.792-8.927-19.517-9.308-22.264-.586-4.181,7.016-14.868,10.068-18.355,1.401-.467,19.712,2.596,20.7,3.399Z"/>
    <path class="cls-4" d="M248.962,237.105c2.835,3.019-17.29,15.954-19.56,17.898-4.757,4.094-7.385,10.6-14.097,11.415-.869-.825,5.561-9.145,6.549-10.285,7.07-8.113,17.127-15.096,27.108-19.028Z"/>
    <path class="cls-4" d="M302.136,205.012c-5.745,5.333-50.817,11.599-62.308,14.803-1.13.315-2.248.63-3.356.956l-.63-2.14c8.178-2.216,22.308-9.416,30.269-11.632,12.653-3.519,26.381-5.648,39.337-7.896-1.064,1.868-1.738,4.431-3.313,5.908Z"/>
    <path class="cls-4" d="M236.472,220.771c-27.249,7.983-46.755,18.355-77.904,13.869-3.269-.467-10.557-2.053-7.787-6.299,9.568-1.455,19.332-1.108,29.063-2.259,12.533-1.477,26.261-6.462,38.186-7.429,4.963-.402,10.546.977,14.705.586.891-.087,1.933-.293,3.106-.608l.63,2.14Z"/>
    <path class="cls-4" d="M223.516,329.356c.749,3.638.489,7.244.467,10.915-2.444.489-3.432-2.737-4.746-4.464-7.581-9.959-12.468-23.144-12.609-35.71.217-.304,3.638,2.042,4.366,2.683,2.411,2.118,11.762,22.927,12.522,26.576Z"/>
    <path class="cls-5" d="M332.101,296.883c-.815,1.314-6.777,24.154-7.038,26.674-.326,3.03.217,5.213,1.032,8.026,8.146-10.176,10.329-25.186,9.753-38.002-1.314.521-3.041,2.15-3.747,3.302ZM302.516,247.086c3.117,1.977,16.161,12.968,19.223,10.643-7.429-11.903-21.852-18.409-34.743-22.797,1.444,7.57,9.97,8.623,15.52,12.153ZM302.875,329.204c1.292.25,18.235-4.844,19.365-6.353,2.183-2.9,6.603-23.817,5.452-27.043-.315-.869-8.96-12.403-9.775-13.065-2.074-1.727-3.758-1.271-6.234-.858-2.302.38-15.596,4.92-16.519,6.299-.663.977-6.799,21.254-6.929,22.514-.25,2.378,12.522,18.094,14.64,18.507ZM270.868,250.301c-.901,1.444.043,18.279,1.173,20.212.652,1.108,20.809,13.12,22.08,13.293,2.053.282,16.573-3.964,18.637-5.191,4.214-2.487,2.965-16.845.337-20.386-2.074-2.802-21.178-14.358-24.545-14.586-4.572-.304-13.022,5.365-17.681,6.658ZM259.834,315.845c-1.26.76-11.089,17.898-10.709,19.31.413,1.575,10.98,14.923,12.816,15.498,3.834,1.206,25.229-.206,28.259-2.27,1.488-1.021,9.894-16.389,9.308-17.833-.38-.934-11.664-15.27-12.533-15.791-2.302-1.401-11.121-.434-14.336-.228-2.324.141-11.882.76-12.805,1.314ZM262.592,353.326c-1.911.163-8.83,5.615-8.189,6.484,14.336,4.225,28.325,1.857,42.357-2.161.424-1.955-.597-2.14-1.814-3.074-5.984-4.659-18.496-.489-25.881-.087-2.248.13-4.507-1.336-6.473-1.162ZM215.305,266.418c6.712-.815,9.34-7.32,14.097-11.415,2.27-1.944,22.395-14.879,19.56-17.898-9.981,3.932-20.038,10.915-27.108,19.028-.988,1.14-7.418,9.46-6.549,10.285ZM248.593,245.001c-2.444.402-20.157,14.445-21.841,17.127-2.4,3.823-1.922,17.616.402,20.983.554.804,17.334,4.051,19.158,3.997,2.715-.076,21.406-15.151,21.982-17.106,1.738-5.908-1.618-13.63-.967-19.766-4.811-.022-14.705-5.908-18.735-5.235ZM226.144,327.814c2.541,2.672,17.649,6.245,20.44,4.627.869-.51,9.894-16.215,10.274-17.464.597-1.955-7.874-23.242-9.253-24.382-.988-.804-19.299-3.866-20.7-3.399-3.052,3.486-10.654,14.173-10.068,18.355.38,2.748,7.602,20.472,9.308,22.264ZM223.516,329.356c-.76-3.649-10.111-24.458-12.522-26.576-.728-.641-4.149-2.987-4.366-2.683.141,12.566,5.028,25.751,12.609,35.71,1.314,1.727,2.302,4.952,4.746,4.464.022-3.671.282-7.277-.467-10.915ZM261.756,229.796c49.427-5.604,88.189,36.155,76.416,85.093-14.597,60.679-98.517,69.117-128.091,14.868-22.471-41.227,5.506-94.727,51.675-99.962Z"/>
    <path class="cls-4" d="M158.819,121.971c-.369,1.846.38,6.191.163,8.471-.043.5-.141.901-.304,1.151-.358.565-12.392,3.932-12.881,3.41.152-1.64.793-10.383,1.162-10.774.424-.434,10.198-2.031,11.86-2.259Z"/>
    <path class="cls-9" d="M157.732,135.015c1.705,11.273-2.064,11.675-11.936,13.022-1.727-11.958,2.161-10.806,11.936-13.022Z"/>
    <path class="cls-4" d="M143.614,125.24c-.402,1.955.402,7.049.174,9.547-.054.51-.141.923-.304,1.162-.793,1.216-10.806,2.064-12.881,3.399-.424-3.204-.543-5.539-.315-7.266.717-5.604,4.952-4.833,13.326-6.842Z"/>
    <path class="cls-4" d="M143.624,152.381c.25,1.249.369,2.335.369,3.291-.022,7.494-7.516,6.538-14.488,8.656-.358-1.749-.489-3.215-.413-4.464.402-6.853,6.897-6.799,14.532-7.483Z"/>
    <path class="cls-11" d="M140.627,44.589c.858-1.358.999-2.292,2.998-1.89v18.637c0,1.119-.195,2.226-.576,3.269-1.488,4.051-5.376,12.989-6.582,14.923-7.092,11.415-20.581,21.33-34.113,22.894,9.927-11.74,21.765-18.257,28.759-32.593,3.465-7.092,5.724-19.278,9.514-25.24Z"/>
    <path class="cls-4" d="M143.614,139.348c2.096,11.99-4.377,10.024-13.011,13.033.402-2.064-.663-9.851.098-10.752.424-.5,11.034-2.194,12.913-2.281Z"/>
    <path class="cls-7" d="M141.376,34.554c0,2.78-8.699,15.444-8.634,20.081-1.303.934-12.62-10.394-12.837-11.556-.434-2.237,10.937-20.961,8.515-26.446,2.183-2.509,12.957,14.803,12.957,17.92Z"/>
    <path class="cls-19" d="M129.603,58.425c1.531,2.324-2.748,12.066-4.42,13.141-2.368,1.51-20.136-10.622-23.177-12.783-4.92-3.486-32.908-25.924-32.115-30.595,1.586-1.977,7.385-7.602,9.362-8.146,1.542-.424,2.15-.076,3.497.402,4.105,1.477,19.017,13.37,23.372,16.845,5.105,4.094,20.451,16.541,23.481,21.135Z"/>
    <path class="cls-4" d="M128.409,128.499c-.141.717-.261,1.998-.402,3.465-.304,3.215-.728,7.266-1.716,7.983-.977.717-11.501,2.074-12.001,1.586-.326-2.042-.456-3.714-.413-5.094.25-7.602,5.984-5.984,14.532-7.939Z"/>
    <path class="cls-4" d="M127.323,155.65c.315,1.618.445,2.998.413,4.171-.174,7.353-6.69,6.658-14.521,7.776-.293-1.52-.424-2.813-.424-3.921,0-5.441,3.313-6.353,8.015-7.016,1.977-.272,4.192-.51,6.516-1.01Z"/>
    <path class="cls-4" d="M127.323,142.618c1.206,8.439-.413,11.23-6.799,12.207-1.184.185-2.52.304-4.04.391-2.183.119-2.987-1.575-3.15-3.617-.228-2.878.804-6.451,1.053-6.723.445-.489,11.002-1.629,12.935-2.259Z"/>
    <path class="cls-18" d="M125.835,12.767c.532,3.236-7.44,26.446-9.894,26.63l-13.424-10.252c3.812-8.102,7.092-16.649,8.536-25.544,2.693,1.564,14.325,6.44,14.781,9.166Z"/>
    <path class="cls-17" d="M121.903,75.292c1.249,1.694-7.722,11.263-10.318,11.501-1.412.119-9.796-3.182-11.795-4.073-10.111-4.485-23.296-14.304-30.573-22.634-7.744-8.862-13.652-16.28-3.128-26.033,17.203,14.955,33.983,32.354,55.813,41.238Z"/>
    <path class="cls-18" d="M145.797,148.037c9.872-1.347,13.641-1.749,11.936-13.022-9.775,2.216-13.663,1.064-11.936,13.022ZM143.614,139.348c-1.879.087-12.49,1.781-12.913,2.281-.76.901.304,8.689-.098,10.752,8.634-3.008,15.107-1.043,13.011-13.033ZM111.184,151.751c-.13-2.161-.402-4.627-.141-5.886-3.041.098-5.582.13-7.602.434l-.163-2.02c6.234-.38,8.938-2.216,9.123-7.885l1.477.043c-.043,1.379.087,3.052.413,5.094.5.489,11.024-.869,12.001-1.586.988-.717,1.412-4.768,1.716-7.983l2.281.119c-.228,1.727-.109,4.062.315,7.266,2.074-1.336,12.088-2.183,12.881-3.399.163-.239.25-.652.304-1.162l2.009.217c.489.521,12.522-2.845,12.881-3.41.163-.25.261-.652.304-1.151l2.02.195v.022c.619.706,6.028-3.215,5.419.532-9.829,2.02-1.977,13.37-8.374,16.617-6.049,3.063-12.664-.293-12.664,7.907l-1.39-.043c0-.956-.119-2.042-.369-3.291-7.635.684-14.13.63-14.532,7.483l-1.358-.043c.033-1.173-.098-2.552-.413-4.171-2.324.5-4.54.739-6.516,1.01l-.282-1.835c6.386-.977,8.004-3.769,6.799-12.207-1.933.63-12.49,1.77-12.935,2.259-.25.272-1.282,3.845-1.053,6.723l-2.15.152Z"/>
    <path class="cls-4" d="M112.128,131.746c.217,1.781.315,3.313.272,4.648-.185,5.669-2.889,7.505-9.123,7.885-.934.054-1.944.076-3.041.076-4.018.011.141-8.178-1.151-11.523l13.044-1.086Z"/>
    <path class="cls-4" d="M111.184,151.751c.087,1.673.098,3.15-.282,3.747-.456.695-12.273,2.932-12.892,2.324-.369-2.411-.489-4.323-.348-5.843.337-3.856,2.281-5.17,5.778-5.68,2.02-.304,4.561-.337,7.602-.434-.261,1.26.011,3.725.141,5.886Z"/>
    <path class="cls-4" d="M111.162,163.709c.054,1.868-.109,3.638-1.184,4.453-1.292.967-12.718,3.236-13.022,1.032.51-11.632,4.561-8.83,14.075-10.296-.163,1.195.087,3.041.13,4.811Z"/>
    <path class="cls-13" d="M107.784,89.4c1.043,1.173-11.089,13.402-12.718,13.891-5.289,1.597-13.489-1.846-18.778-3.052,2.335-2.444,13.999-15.737,15.9-16.106,1.803-.348,12.001,6.18,15.596,5.267Z"/>
    <path class="cls-6" d="M106.59,3.21c1.075,3.313-5.724,22.992-8.026,23.166l-13.283-10.274c2.574-2.509,5.061-15.031,6.907-15.672,1.51-.521,13.837,1.053,14.401,2.78Z"/>
    <path class="cls-4" d="M95.837,148.037c.13,1.488.163,2.802.098,3.942-.424,7.505-4.974,7.917-13.695,6.951-.282-.478-.272-2.129-.152-3.932.185-2.617.619-5.561.815-5.778.445-.489,12.392-1.738,12.935-1.184Z"/>
    <path class="cls-4" d="M95.837,133.918c-.293,1.825.402,10.502,0,10.872-.478.445-11.197.76-13.044,1.086-1.249-13.293.76-12.544,13.044-11.958Z"/>
    <path class="cls-4" d="M94.741,161.07c-.282,1.477.217,5.713.163,8.091-.011.782-.087,1.358-.272,1.575-.858.999-13.5,1.705-13.999,1.195.456-1.597.749-9.416,1.086-9.764.456-.467,10.806-.043,13.022-1.097Z"/>
    <path class="cls-18" d="M73.714,71.013c2.216,1.988,13.619,9.047,13.293,11.121-.565,3.53-13.728,15.324-17.54,14.695-2.031-.337-13.185-8.341-12.729-10.133.282-1.13,15.335-12.729,16.975-15.683Z"/>
    <path class="cls-10" d="M86.074,1.983c-.608,11.523-6.81,12.012-13.554,17.931-15.705,13.793-15.476,27.054-25.707,41.64-1.271,1.792-3.106,2.053-3.106.152,0-5.572-.706-13.283,0-18.463C46.269,24.182,66.427,3.297,86.074,1.983Z"/>
    <path class="cls-4" d="M80.633,135.004c.51.521-.51,10.187-1.206,10.741-.315.25-4.909.597-8.352.88-1.575.13-2.911.25-3.475.337-.239-2.444-.358-4.409-.315-5.995.13-7.027,3.323-6.44,13.348-5.963Z"/>
    <path class="cls-18" d="M82.24,158.93c8.721.967,13.272.554,13.695-6.951h1.727c-.141,1.52-.022,3.432.348,5.843.619.608,12.435-1.629,12.892-2.324.38-.597.369-2.074.282-3.747l2.15-.152c.163,2.042.967,3.736,3.15,3.617,1.52-.087,2.856-.206,4.04-.391l.282,1.835c-4.703.663-8.015,1.575-8.015,7.016l-1.629.033c-.043-1.77-.293-3.617-.13-4.811-9.514,1.466-13.565-1.336-14.075,10.296l-2.053-.033c.054-2.378-.445-6.614-.163-8.091-2.216,1.053-12.566.63-13.022,1.097-.337.348-.63,8.167-1.086,9.764l-2.053-.043c.033-2.281-.348-7.277-.119-8.645-3.617-.087-6.43-.337-8.515-.174l-.13-2.226c6.321-.391,9.709-.543,10.079-5.995l2.194.152c-.119,1.803-.13,3.454.152,3.932Z"/>
    <path class="cls-4" d="M79.546,149.123c.337,2.378.456,4.247.348,5.724-.369,5.452-3.758,5.604-10.079,5.995-1.021.065-2.129.141-3.302.239-.901-9.405-.152-11.784,4.714-12.164,2.009-.152,4.724.033,8.319.206Z"/>
    <path class="cls-4" d="M78.46,163.242c-.228,1.368.152,6.364.119,8.645,0,.619-.043,1.043-.13,1.13-.478.445-11.197,1.119-13.033,1.097-.272-2.357-.38-4.225-.304-5.702.195-3.964,1.705-5.115,4.833-5.343,2.085-.163,4.898.087,8.515.174Z"/>
    <path class="cls-21" d="M57.282,51.399l13.38,15.715c-1.26,3.541-15.813,17.323-18.17,15.694-.706-3.019-6.821-10.839-6.397-13.315.434-2.487,9.981-14.108,11.187-18.094Z"/>
    <path class="cls-4" d="M64.396,135.515l-.022,5.441-.033,6.006-14.119-.011c.532-.901.717-3.074.804-5.333.119-3.106.022-6.364.272-6.614.467-.467,11.914-.163,13.098.51Z"/>
    <path class="cls-4" d="M50.212,150.209l14.119.011c-1.086,1.966-.695,10.47-1.075,10.861-.445.467-10.969-.348-13.044,0v-10.872Z"/>
    <path class="cls-4" d="M63.255,164.328c.217,1.564.304,2.911.261,4.062-.282,7.592-5.963,7.049-14.39,6.81-.239-1.846-.358-3.389-.358-4.681,0-8.33,4.942-6.147,14.488-6.191Z"/>
    <path class="cls-4" d="M48.05,135.004c.206,2.726.337,4.876.261,6.56-.163,4.475-1.673,5.68-6.614,5.68-1.52,0-3.367-.119-5.604-.282v-11.958h11.958Z"/>
    <polygon class="cls-4" points="46.964 150.209 46.964 161.081 35.007 161.081 35.007 150.209 41.697 150.209 46.964 150.209"/>
    <path class="cls-4" d="M45.878,170.519v4.681h-11.958c-.261-2.607-.369-4.627-.261-6.18.413-5.561,3.595-5.148,12.218-4.692v6.191Z"/>
    <path class="cls-18" d="M50.212,161.081c2.074-.348,12.598.467,13.044,0,.38-.391-.011-8.895,1.075-10.861l-14.119-.011v10.872ZM35.007,161.081h11.958v-10.872h-5.267v-2.965c4.942,0,6.451-1.206,6.614-5.68l2.715.054c-.087,2.259-.272,4.431-.804,5.333l14.119.011.033-6.006,2.911.011c-.043,1.586.076,3.551.315,5.995.565-.087,1.901-.206,3.475-.337l.152,2.292c-4.866.38-5.615,2.759-4.714,12.164,1.173-.098,2.281-.174,3.302-.239l.13,2.226c-3.128.228-4.638,1.379-4.833,5.343l-1.597-.022c.043-1.151-.043-2.498-.261-4.062-9.547.043-14.488-2.14-14.488,6.191h-2.889v-6.191c-8.623-.456-11.806-.869-12.218,4.692l-2.65-.033c.098-1.977.293-3.845.739-4.648-3.519-.206-6.071-.543-7.907-.576l.043-2.737c3.193.076,7.581.348,7.874.054.391-.38-.358-8.819.608-10.893l2.639.022v10.872Z"/>
    <path class="cls-4" d="M32.835,135.015c.869,13.782.25,11.567-11.936,10.85l1.086-11.947,10.85,1.097Z"/>
    <path class="cls-4" d="M32.368,150.187c-.967,2.074-.217,10.513-.608,10.893-.293.293-4.681.022-7.874-.054-1.336-.033-2.455-.033-2.998.054v-11.958c2.704.424,9.948-1.075,11.48,1.064Z"/>
    <path class="cls-4" d="M31.749,164.339c-.445.804-.641,2.672-.739,4.648-.152,2.889-.109,5.984-.337,6.212-.38.402-9.047-.293-10.872,0-.576-9.807-.478-11.523,4.04-11.436,1.835.033,4.388.369,7.907.576Z"/>
    <path class="cls-18" d="M20.899,145.865c12.186.717,12.805,2.932,11.936-10.85l-10.85-1.097-1.086,11.947ZM95.837,133.918c-12.283-.586-14.293-1.336-13.044,11.958,1.846-.326,12.566-.641,13.044-1.086.402-.369-.293-9.047,0-10.872ZM95.837,148.037c-.543-.554-12.49.695-12.935,1.184-.195.217-.63,3.16-.815,5.778l-2.194-.152c.109-1.477-.011-3.345-.348-5.724-3.595-.174-6.31-.358-8.319-.206l-.152-2.292c3.443-.282,8.037-.63,8.352-.88.695-.554,1.716-10.22,1.206-10.741-10.024-.478-13.217-1.064-13.348,5.963l-2.911-.011.022-5.441c-1.184-.673-12.631-.977-13.098-.51-.25.25-.152,3.508-.272,6.614l-2.715-.054c.076-1.683-.054-3.834-.261-6.56h-11.958v11.958c2.237.163,4.084.282,5.604.282v2.965h-6.69l-2.639-.022c-1.531-2.14-8.775-.641-11.48-1.064v11.958c.543-.087,1.662-.087,2.998-.054l-.043,2.737c-4.518-.087-4.616,1.629-4.04,11.436,1.825-.293,10.491.402,10.872,0,.228-.228.185-3.323.337-6.212l2.65.033c-.109,1.553,0,3.573.261,6.18h11.958v-4.681h2.889c0,1.292.119,2.835.358,4.681,8.428.239,14.108.782,14.39-6.81l1.597.022c-.076,1.477.033,3.345.304,5.702,1.835.022,12.555-.652,13.033-1.097.087-.087.13-.51.13-1.13l2.053.043c.5.51,13.141-.195,13.999-1.195.185-.217.261-.793.272-1.575l2.053.033c.304,2.205,11.73-.065,13.022-1.032,1.075-.815,1.238-2.585,1.184-4.453l1.629-.033c0,1.108.13,2.4.424,3.921,7.831-1.119,14.347-.424,14.521-7.776l1.358.043c-.076,1.249.054,2.715.413,4.464,6.973-2.118,14.466-1.162,14.488-8.656l1.39.043c0,1.173.13,2.574.424,4.268l5.409-.543c-1.857,2.009-4.648,7.233-6.582,8.623-3.15,2.248-24.969,6.679-30.301,7.711-31.529,6.147-63.752,8.417-95.617,7.016l-2.216,34.711-12.979,1.13,5.452-97.181c1.032-18.507,17.964-10.774,14.086,4.876,49.937,3.856,100.027-1.162,147.705-16.291,1.292,9.97-5.496,7.624-8.699,10.296-2.161,1.803-.684,7.494-1.064,10.307l-2.02-.195c.217-2.281-.532-6.625-.163-8.471-1.662.228-11.436,1.825-11.86,2.259-.369.391-1.01,9.134-1.162,10.774l-2.009-.217c.228-2.498-.576-7.592-.174-9.547-8.374,2.009-12.609,1.238-13.326,6.842l-2.281-.119c.141-1.466.261-2.748.402-3.465-8.547,1.955-14.282.337-14.532,7.939l-1.477-.043c.043-1.336-.054-2.867-.272-4.648l-13.044,1.086c1.292,3.345-2.867,11.534,1.151,11.523,1.097,0,2.107-.022,3.041-.076l.163,2.02c-3.497.51-5.441,1.825-5.778,5.68h-1.727c.065-1.14.033-2.455-.098-3.942Z"/>
    <path class="cls-18" d="M4.054,226.245c17.605-.706,34.32-.641,51.827-3.584,50.318-8.428,100.19-40.326,117.361-90.068,14.206-41.173,5.267-88.449-25.251-119.761-.076-4.181,47.82-11.121,53.196-11.404,10.046-.869,20.136-1.053,30.269-.565.88.043,2.433,0,2.541,0,.185-.011,1.26,0,1.933,0,1.89-.011,36.677,2.487,43.584,6.864.825.521.988,3.041.261,4.171-38.002,35.384-15.085,101.971,37.48,104.621,2.14,1.086,1.499,2.617.326,4.551-.413.684-12.175.424-17.04.956-1.01.109-2.531.369-3.171.424-1.531.119-3.28-.076-6.039.619-68.781,8.623-103.85,65.924-164.691,93.239-41.314,18.55-82.237,22.134-126.375,11.002-.25-1.89,2.465-1.021,3.79-1.064Z"/>
  </g>
  <g>
    <path class="cls-20" d="M50.834,391.661l19.289-19.416,14.673,14.576-3.582,3.606-10.207-10.14-12.125,12.204,10.568,10.5-3.582,3.605-15.034-14.935ZM63.013,387.668l3.472-3.496,9.347,9.287-3.472,3.495-9.347-9.286Z"/>
    <path class="cls-20" d="M75.838,415.273c-1.396-1.135-2.601-2.391-3.614-3.767-1.014-1.378-1.689-2.624-2.026-3.738l4.339-2.116c.37,1.074.947,2.172,1.731,3.295.783,1.124,1.67,2.088,2.661,2.894,1.092.887,1.973,1.385,2.642,1.491.668.107,1.192-.072,1.57-.537.312-.384.369-.817.172-1.297-.198-.48-.55-1.008-1.053-1.586-.505-.578-1.065-1.201-1.68-1.869-.616-.668-1.208-1.376-1.776-2.124-.569-.747-1.007-1.531-1.313-2.351-.308-.821-.4-1.669-.277-2.542.123-.875.562-1.777,1.318-2.708.838-1.031,1.876-1.7,3.114-2.003,1.238-.304,2.608-.224,4.111.242,1.503.465,3.043,1.339,4.621,2.621,1.113.903,2.147,1.945,3.103,3.125s1.629,2.315,2.02,3.405l-4.315,2.085c-.411-1.106-.947-2.069-1.605-2.891-.66-.821-1.363-1.537-2.112-2.144-1.052-.855-1.935-1.338-2.651-1.449-.716-.111-1.255.056-1.616.5-.329.405-.399.852-.209,1.342.189.491.528,1.034,1.016,1.632.488.598,1.044,1.226,1.668,1.884.624.659,1.215,1.366,1.776,2.124.56.757.993,1.538,1.298,2.339.305.803.406,1.64.301,2.513-.104.872-.535,1.774-1.291,2.704-.822,1.012-1.853,1.661-3.092,1.946-1.24.286-2.613.186-4.117-.297-1.505-.484-3.076-1.391-4.715-2.722Z"/>
    <path class="cls-20" d="M96.482,430.345c-1.895-1.246-3.329-2.743-4.301-4.489-.973-1.747-1.427-3.583-1.363-5.506.064-1.924.668-3.756,1.814-5.499,1.16-1.764,2.607-3.05,4.341-3.86,1.733-.81,3.595-1.114,5.584-.913,1.989.201,3.931.924,5.826,2.17,1.851,1.217,3.209,2.664,4.072,4.34.863,1.675,1.149,3.446.857,5.313l-5.349-.476c.087-1.128-.084-2.114-.512-2.958-.428-.843-1.046-1.53-1.851-2.06-.871-.572-1.784-.892-2.739-.958-.955-.067-1.87.127-2.745.581-.876.453-1.65,1.193-2.323,2.216-.674,1.023-1.045,2.027-1.114,3.01-.07.984.115,1.901.554,2.751.439.851,1.094,1.562,1.965,2.135.805.53,1.677.83,2.614.9.936.07,1.913-.169,2.929-.718l2.535,4.755c-1.585.986-3.317,1.414-5.197,1.285-1.881-.129-3.747-.803-5.598-2.02Z"/>
    <path class="cls-20" d="M117.195,442.266c-1.566-.775-2.811-1.77-3.736-2.984-.926-1.214-1.418-2.615-1.476-4.2-.059-1.585.392-3.347,1.352-5.286l5.274-10.651,5.466,2.707-4.876,9.846c-.775,1.565-1.012,2.881-.711,3.946.301,1.066,1.059,1.899,2.274,2.501.841.417,1.677.606,2.511.567.833-.038,1.625-.345,2.375-.919.749-.573,1.408-1.433,1.974-2.578l4.616-9.32,5.466,2.707-9.335,18.85-5.185-2.568,2.568-5.186.2,1.975c-1.278.997-2.696,1.523-4.252,1.582-1.556.058-3.058-.271-4.506-.988Z"/>
    <path class="cls-20" d="M145.471,454.097c-2.27-.775-4.11-1.899-5.521-3.372-1.412-1.474-2.323-3.141-2.734-5.003-.412-1.862-.28-3.778.393-5.752.682-1.998,1.748-3.611,3.2-4.837,1.451-1.225,3.128-2.003,5.031-2.331,1.902-.328,3.865-.148,5.888.543,1.948.665,3.565,1.678,4.85,3.039,1.284,1.361,2.119,2.969,2.506,4.821.386,1.854.214,3.853-.519,5.999-.076.223-.175.471-.296.746-.122.276-.237.533-.346.771l-16.17-5.519,1.149-3.368,13.136,4.484-2.561.241c.354-1.036.451-2.008.293-2.916-.159-.907-.534-1.703-1.127-2.388-.593-.685-1.383-1.196-2.369-1.532-.987-.337-1.93-.418-2.83-.243-.9.175-1.692.579-2.376,1.213-.685.634-1.208,1.481-1.57,2.542l-.303.888c-.371,1.085-.456,2.124-.257,3.113.199.991.662,1.852,1.391,2.582.728.731,1.684,1.298,2.869,1.702,1.06.362,2.046.52,2.958.473.911-.047,1.809-.278,2.694-.692l1.935,4.379c-1.267.724-2.685,1.129-4.256,1.212-1.571.084-3.257-.181-5.057-.796Z"/>
    <path class="cls-20" d="M160.745,458.304l6.778-28.208,5.93,1.425-6.778,28.208-5.93-1.425Z"/>
    <path class="cls-20" d="M180.062,462.619c-1.625-.239-2.977-.721-4.056-1.446s-1.858-1.609-2.337-2.655c-.479-1.044-.631-2.16-.457-3.347.182-1.238.644-2.276,1.387-3.115.742-.839,1.81-1.426,3.203-1.762,1.393-.335,3.146-.348,5.261-.037l5.532.814-.517,3.52-4.874-.717c-1.418-.208-2.426-.119-3.023.268-.597.386-.947.928-1.049,1.624-.113.773.099,1.43.639,1.971.539.54,1.338.887,2.395,1.043,1.006.148,1.943.042,2.813-.317.869-.36,1.553-.977,2.051-1.853l.519,2.921c-.636,1.277-1.585,2.178-2.848,2.704s-2.81.654-4.641.385ZM186.451,463.242l.597-4.062-.256-.947,1.069-7.272c.19-1.289-.056-2.353-.736-3.19-.681-.837-1.833-1.376-3.458-1.615-1.109-.163-2.225-.149-3.345.042-1.122.191-2.1.528-2.935,1.011l-1.547-4.535c1.252-.632,2.71-1.05,4.374-1.254,1.663-.203,3.32-.184,4.971.059,3.172.466,5.524,1.576,7.059,3.329,1.534,1.753,2.067,4.216,1.602,7.388l-1.745,11.876-5.648-.83Z"/>
    <path class="cls-20" d="M206.478,465.212c-1.797-.066-3.515-.345-5.152-.836-1.639-.491-2.928-1.08-3.867-1.767l2.194-4.3c.942.635,2.063,1.165,3.365,1.592s2.59.663,3.867.71c1.407.052,2.409-.08,3.008-.397.598-.316.908-.774.931-1.374.019-.494-.196-.874-.642-1.139-.447-.264-1.046-.475-1.796-.633-.752-.159-1.573-.319-2.467-.484-.893-.163-1.793-.372-2.696-.627s-1.725-.619-2.463-1.089c-.74-.471-1.323-1.092-1.75-1.865s-.62-1.757-.575-2.956c.049-1.329.477-2.486,1.283-3.474.806-.987,1.948-1.746,3.43-2.279,1.48-.532,3.237-.759,5.269-.685,1.432.053,2.885.264,4.358.631,1.473.367,2.693.87,3.661,1.505l-2.193,4.262c-.994-.637-2.001-1.085-3.022-1.344-1.021-.26-2.013-.408-2.977-.443-1.354-.05-2.351.096-2.989.436-.639.343-.969.8-.99,1.372-.02.522.193.921.64,1.198.445.278,1.043.508,1.794.692.75.184,1.571.352,2.465.502s1.793.36,2.696.628c.903.268,1.718.63,2.445,1.088.726.457,1.31,1.066,1.751,1.825s.64,1.739.595,2.937c-.048,1.303-.482,2.441-1.3,3.414-.819.974-1.975,1.721-3.467,2.239-1.493.518-3.295.739-5.404.66Z"/>
    <path class="cls-20" d="M242.959,463.772c-1.966.244-3.793.019-5.482-.678-1.688-.696-3.092-1.79-4.209-3.279-1.118-1.49-1.811-3.321-2.081-5.494-.273-2.198-.05-4.157.669-5.874.718-1.718,1.812-3.114,3.281-4.19s3.186-1.736,5.152-1.98c1.758-.219,3.346-.022,4.761.59,1.415.613,2.584,1.663,3.505,3.15.92,1.488,1.533,3.461,1.838,5.918.302,2.432.203,4.487-.297,6.164-.501,1.677-1.357,2.985-2.567,3.924-1.21.938-2.733,1.522-4.569,1.749ZM243.389,458.675c.983-.122,1.847-.466,2.59-1.031s1.301-1.31,1.672-2.237c.37-.926.483-1.984.335-3.174-.152-1.215-.519-2.221-1.104-3.015-.584-.794-1.307-1.374-2.166-1.74-.86-.365-1.782-.488-2.764-.365-1.009.125-1.886.471-2.63,1.036-.744.564-1.302,1.304-1.674,2.217-.373.913-.484,1.978-.332,3.193.148,1.19.514,2.189,1.101,2.995.586.808,1.309,1.394,2.169,1.759.859.366,1.794.487,2.802.361ZM249.439,462.652l-.531-4.268-.654-6.223-1.155-6.121-1.508-12.145,6.053-.753,3.576,28.791-5.781.718Z"/>
    <path class="cls-20" d="M272.831,458.39c-2.332.557-4.488.592-6.468.1-1.981-.491-3.642-1.413-4.984-2.767-1.343-1.353-2.257-3.045-2.742-5.073-.491-2.054-.451-3.986.12-5.798.571-1.811,1.573-3.365,3.005-4.659,1.432-1.294,3.188-2.191,5.267-2.688,2.002-.479,3.91-.487,5.724-.023,1.812.464,3.377,1.376,4.695,2.735,1.317,1.36,2.24,3.143,2.767,5.348.055.229.104.491.149.789s.085.576.12.835l-16.617,3.977-.828-3.46,13.499-3.231-2.036,1.572c-.254-1.065-.691-1.937-1.31-2.621-.62-.682-1.362-1.154-2.229-1.416-.867-.261-1.807-.271-2.821-.029-1.015.243-1.855.68-2.522,1.307-.667.629-1.121,1.395-1.36,2.296-.24.901-.229,1.898.032,2.987l.219.913c.267,1.115.75,2.038,1.447,2.769.697.732,1.549,1.212,2.555,1.439,1.006.229,2.118.197,3.334-.095,1.09-.261,2.008-.654,2.753-1.181s1.381-1.202,1.908-2.025l3.974,2.667c-.683,1.289-1.666,2.389-2.949,3.299s-2.85,1.587-4.7,2.03Z"/>
    <path class="cls-20" d="M290.798,461.171l-9.551-26.98,5.491-1.943,1.436,4.054,1.977,5.936,2.444,5.73,3.954,11.168-5.75,2.036ZM300.092,450.166c-1.671.591-3.264.741-4.778.447s-2.889-1.073-4.124-2.335c-1.235-1.264-2.261-3.049-3.079-5.359-.826-2.334-1.173-4.368-1.041-6.102.133-1.734.695-3.191,1.688-4.372.992-1.181,2.36-2.079,4.104-2.698,1.867-.661,3.695-.83,5.481-.509,1.787.321,3.386,1.089,4.798,2.304,1.411,1.215,2.483,2.854,3.213,4.918.74,2.089.943,4.049.61,5.881-.333,1.833-1.094,3.43-2.285,4.791-1.191,1.362-2.72,2.374-4.587,3.035ZM297.427,445.801c.957-.34,1.733-.863,2.326-1.571.592-.707.97-1.552,1.134-2.537.164-.984.044-2.041-.356-3.172-.409-1.154-.984-2.057-1.726-2.707-.742-.65-1.566-1.064-2.471-1.24-.906-.177-1.838-.097-2.796.243-.958.339-1.74.865-2.345,1.577-.606.712-.986,1.551-1.141,2.519-.156.967-.029,2.029.38,3.183.401,1.131.967,2.029,1.701,2.696.734.667,1.559,1.085,2.478,1.259.918.172,1.857.089,2.815-.25Z"/>
    <path class="cls-20" d="M324.343,440.055c-2.026.959-4.024,1.385-5.992,1.278-1.968-.106-3.755-.682-5.358-1.725s-2.851-2.507-3.744-4.392c-.903-1.908-1.25-3.813-1.04-5.715.21-1.902.9-3.641,2.071-5.22,1.171-1.577,2.769-2.846,4.796-3.805,2.002-.948,3.991-1.377,5.965-1.288,1.975.09,3.755.653,5.341,1.689,1.587,1.037,2.838,2.522,3.752,4.453.892,1.885,1.239,3.776,1.041,5.671-.199,1.897-.886,3.642-2.063,5.238-1.177,1.595-2.767,2.867-4.769,3.815ZM322.202,435.531c.919-.434,1.643-1.037,2.173-1.806.53-.77.82-1.65.871-2.64s-.181-2.027-.694-3.111c-.524-1.107-1.182-1.949-1.974-2.526s-1.654-.904-2.585-.983c-.932-.078-1.857.1-2.775.535-.919.435-1.644,1.038-2.173,1.807-.53.769-.828,1.647-.896,2.63-.068.984.161,2.03.685,3.137.513,1.083,1.174,1.918,1.984,2.5.809.583,1.679.914,2.61.992.931.079,1.857-.099,2.775-.535Z"/>
    <path class="cls-20" d="M339.314,432.122l-10.47-18.244,5.053-2.9,2.958,5.154-1.568-1.083c-.197-1.6.111-3.077.927-4.431s2.082-2.525,3.801-3.511l2.802,4.883c-.239.107-.452.207-.639.299-.188.093-.383.197-.586.313-1.448.831-2.381,1.915-2.8,3.252-.42,1.339-.129,2.877.87,4.618l4.944,8.614-5.29,3.036Z"/>
    <path class="cls-20" d="M344.143,410.462l-2.588-3.914,12.165-8.043,2.588,3.914-12.165,8.043ZM362.591,418.232c-2.066,1.366-4.024,1.903-5.872,1.609-1.851-.292-3.465-1.482-4.845-3.57l-10.178-15.394,5.087-3.364,10.135,15.328c.489.74,1.062,1.181,1.719,1.325.658.144,1.323-.008,1.998-.453.804-.532,1.345-1.202,1.623-2.011l3.742,2.682c-.278.715-.719,1.406-1.326,2.071-.607.667-1.3,1.259-2.083,1.776Z"/>
    <path class="cls-20" d="M358.249,391.57c-.903.665-1.83.944-2.784.836-.953-.106-1.716-.549-2.288-1.325-.571-.776-.767-1.636-.588-2.579.18-.942.722-1.745,1.624-2.41.902-.664,1.818-.958,2.748-.884.931.076,1.681.502,2.254,1.278.603.819.822,1.7.661,2.645-.162.946-.704,1.758-1.627,2.438ZM370.008,412.676l-12.477-16.935,4.911-3.618,12.477,16.935-4.911,3.618Z"/>
    <path class="cls-20" d="M384.671,401.408l-20.264-10.484,4.832-4.034,17.244,9.186-2.401,2.004-5.749-18.782,4.502-3.759,6.668,21.835-4.832,4.034Z"/>
    <path class="cls-20" d="M407.686,380.602l-2.867-2.938-.907-.371-5.134-5.262c-.909-.933-1.904-1.383-2.982-1.35-1.079.033-2.206.622-3.381,1.769-.803.783-1.469,1.678-1.997,2.685-.529,1.008-.854,1.99-.977,2.947l-4.543-1.522c.257-1.379.809-2.791,1.656-4.237.848-1.446,1.868-2.751,3.062-3.916,2.295-2.239,4.605-3.436,6.929-3.591,2.325-.156,4.607.914,6.846,3.209l8.381,8.592-4.086,3.986ZM403.314,385.304c-1.175,1.146-2.379,1.93-3.609,2.347-1.231.418-2.407.5-3.528.246-1.122-.253-2.101-.809-2.938-1.668-.874-.895-1.419-1.893-1.636-2.992s-.035-2.305.543-3.616c.579-1.31,1.633-2.712,3.163-4.205l4.002-3.903,2.485,2.546-3.527,3.44c-1.026,1.001-1.566,1.857-1.621,2.565-.055.709.164,1.316.655,1.819.546.559,1.198.789,1.954.688.757-.1,1.518-.524,2.283-1.271.728-.71,1.212-1.52,1.454-2.429.242-.909.165-1.827-.229-2.754l2.638,1.359c.629,1.28.77,2.582.422,3.904-.348,1.323-1.185,2.63-2.51,3.922Z"/>
    <path class="cls-20" d="M421.305,366.574c-1.191,1.348-2.496,2.5-3.914,3.455s-2.691,1.579-3.818,1.869l-1.935-4.423c1.088-.325,2.21-.856,3.365-1.593,1.154-.736,2.155-1.582,3.001-2.539.932-1.055,1.466-1.914,1.6-2.578.135-.664-.023-1.194-.472-1.592-.37-.328-.801-.402-1.288-.226-.488.178-1.03.507-1.628.987-.599.481-1.244,1.015-1.937,1.602-.693.588-1.425,1.15-2.195,1.686-.77.538-1.571.943-2.404,1.215-.832.273-1.682.33-2.551.17-.869-.159-1.752-.634-2.651-1.429-.996-.881-1.62-1.945-1.872-3.194-.253-1.249-.115-2.615.412-4.097.527-1.481,1.465-2.984,2.811-4.508.949-1.074,2.033-2.064,3.251-2.971s2.38-1.531,3.485-1.876l1.906,4.397c-1.123.365-2.108.86-2.956,1.484-.848.625-1.592,1.299-2.23,2.021-.897,1.015-1.416,1.878-1.557,2.589-.141.71.004,1.256.433,1.635.39.346.834.433,1.332.264.497-.168,1.055-.485,1.672-.948.618-.463,1.269-.993,1.952-1.589.684-.596,1.414-1.158,2.195-1.686s1.578-.929,2.391-1.201c.815-.272,1.655-.337,2.522-.197.868.141,1.75.608,2.649,1.402.977.864,1.582,1.921,1.816,3.171.233,1.251.078,2.618-.468,4.1-.546,1.483-1.518,3.016-2.915,4.598Z"/>
  </g>
</svg>