<?xml version="1.0" encoding="UTF-8"?>
<svg id="Capa_1" data-name="Capa 1" xmlns="http://www.w3.org/2000/svg" viewBox="0 0 251.205 468.245">
  <defs>
    <style>
      .cls-1 {
        fill: #211d1c;
      }
    </style>
  </defs>
  <path class="cls-1" d="M244.654,229.487c1.66,1.481.707,5.814,0,7.042-.742,1.228-6.43,8.233-7.595,9.93-1.201,1.697-7.348,3.9-7.348,3.9l-6.889,5.814s-1.166-2.203-1.166-3.647,5.193-9.461,5.193-9.461l-2.12-5.814s-4.522-.975-5.228-1.192c-.707-.253.495-3.647.495-5.814,0-2.203,2.12-14.553,2.614-21.089.459-6.536-6.43-17.947-10.916-25.458-4.522-7.511-6.889-17.911-7.595-22.028-.707-4.117-11.552-14.553-11.552-14.553,0,0-2.438,0-3.851-.722s-6.642-8.956-6.642-8.956c0,0-1.908,4.586-2.12,5.308-.247.722,5.44,17.694,7.56,24.23,2.155,6.536,4.522,27.625,4.981,34.414.495,6.789-2.367,26.903-3.78,32.969-1.413,6.031-11.835,6.031-11.835,6.031l2.579,13.578s.707,7.258,0,11.411c-.707,4.117-8.055,23.725-8.055,23.725,0,0-5.44,40.697-6.394,47.016-.954,6.283-9.256,24.447-14.237,34.161-4.946,9.678-13.495,11.88-19.642,11.88-6.182,0-12.329-6.319-12.329-6.319,0,0-13.99-4.839-17.063-6.789l-13.778-7.006s-7.101,25.928-8.761,29.069-8.514,12.097-15.155,11.375-7.136-11.628-7.136-11.628c0,0-8.514,14.769-10.669,18.417-2.12,3.647-9.008,17.442-11.128,21.161-2.12,3.719-4.981,21.955-4.981,21.955,0,0,1.66,8.017.495,9.461-1.201,1.444-29.18,0-29.18,0,0,0-1.166-4.117-1.166-7.006,0-2.925,3.321-10.436,7.56-14.553,4.275-4.117,6.182-16.719,8.796-26.65s11.587-36.364,12.541-41.672c.954-5.344,3.815-18.164,11.163-26.18,7.348-7.981,12.788-14.047,13.954-21.558s4.769-28.094,4.769-28.094c0,0,.212-10.183-.495-17.225-.707-7.006,5.228-12.097,4.275-18.886s5.44-14.047,5.228-20.836c-.247-6.789,4.275-8.017,5.44-13.072,1.201-5.092,6.182-7.764,5.688-8.486-.459-.722-4.734-4.117-4.487-4.875.212-.722-3.109-11.375-3.568-17.911-.459-6.536,6.394-12.35,6.394-12.35,0,0-1.413-4.117-4.027-8.486s.247-15.528,1.201-20.114c.919-4.586-.495-12.35-.495-12.35l-4.734-1.95s-3.321,4.622-4.487,6.789c-1.201,2.167-9.256,7.981-12.117,13.578-2.826,5.561-11.128,10.653-13.495,12.819-2.367,2.203-4.734,9.461-4.734,12.603,0,0,4.734,13.108,8.267,17.947,3.568,4.839,9.75,16.467,9.008,18.417-.707,1.914-8.514,3.142-8.514,3.142,0,0,.954,17.694.954,18.417s-2.862.975-4.027,1.444c-1.201.506-4.981-13.325-4.981-13.325l-1.66,17.947s-3.815.975-4.522,1.192c-.707.253-1.166-13.072-1.166-13.072l-3.321,13.072s-2.614-.217-3.815,0c-1.166.253.742-12.819.742-12.819l-6.182,9.678s-2.367-.975-3.073-1.697,6.889-12.35,8.302-15.492c1.413-3.178,5.935-15.022,5.935-15.022,0,0-5.935-7.042-9.962-15.022-4.027-8.017-5.476-13.325-5.228-19.644.247-6.283,3.321-10.905,7.348-14.769,4.027-3.9,8.549-14.047,11.623-16.972,3.073-2.889,6.147-13.794,8.514-19.139,2.402-5.344,8.302-16.467,13.53-25.675,5.193-9.208,17.063-15.022,23.705-18.669,6.642-3.647,18.723-9.678,18.723-9.678l2.367-4.622-2.367-10.653s-6.182-3.142-6.889-4.369c-.707-1.192-3.533-11.122-1.872-13.794,1.66-2.672,4.981-2.672,4.981-2.672l-.247-14.769-4.027-4.875s4.734-12.35,15.862-16.719c11.163-4.333,26.813.758,26.813.758,0,0-1.201-4.117-.495-3.647s8.549,4.586,8.549,4.586l-.247-2.636s13.99,8.956,14.943,12.35-.954,8.703-2.155,9.678c-1.166.975-3.533,4.117-3.78,6.536s-4.027,9.461-4.027,9.461l-1.201,12.603s-3.321,8.739-2.367,14.047c18.511,2.672,49.07,16.467,50.977,18.164s16.604,33.222,16.604,33.222l4.027,10.905s4.487,7.981,5.193,8.956,10.916,15.492,14.237,23.255c0,0,5.935,28.816,6.147,32.969.247,4.117,2.862,13.325,2.614,17.189s4.522,16.467,6.182,17.911ZM112.6,335.328l2.579-6.753s-7.348-8.269-7.348-13.903v-21.017l-11.375,16.142-6.995,17.261,6.253,8.269h16.886Z"/>
  <path class="cls-1" d="M216.18,396.897c19.218,0,34.762,15.925,34.762,35.569s-15.544,35.533-34.762,35.533-34.762-15.925-34.762-35.533,15.579-35.569,34.762-35.569Z"/>
</svg>