<?xml version="1.0" encoding="UTF-8"?>
<svg id="Capa_1" data-name="Capa 1" xmlns="http://www.w3.org/2000/svg" viewBox="0 0 317.145 477.436">
  <defs>
    <style>
      .cls-1 {
        fill: #0379b7;
      }

      .cls-2 {
        fill: #eb5e44;
      }
    </style>
  </defs>
  <path class="cls-1" d="M13.975,94.901c-.453-.567-3.248-3.777-5.024-4.608-1.926-.944-4.419-.944-6.572-2.191-2.191-1.209-1.02-3.702,0-3.551.982.151,3.928.529,3.928.529-.378-.68-.151-1.926,1.095-1.926s7.063.151,10.387,1.549c3.324,1.398,7.063,6.195,7.063,6.195,0,0,4.797,3.664,6.27,7.063s5.175,10.765,7.743,12.616c7.856,5.741,34.787,15.977,46.194,23.229,11.369,7.29,16.166,13.9,18.659,14.353,8.234,1.549,33.314,8.234,34.938,8.461,17.941,2.568,30.142,7.29,34.787,9.518,4.646,2.266,7.894,6.043,7.894,6.043,0,0,3.664-2.946,3.739-3.551s-.264-6.912-1.095-7.743c-4.344-4.344-5.552-5.628-6.648-8.499-.982-2.531.831-4.457,1.586-5.024.718-.604,1.851-2.002,1.851-2.002-.529-1.473,1.473-2.455,1.473-2.455-.604-1.095.302-2.493.302-2.493,1.889-.604,4.117-3.022,4.117-3.022-1.02-1.7-.151-4.495.718-4.495,2.757,0,7.97.076,7.97.076,0,0,1.473-3.248,2.682-3.966,1.171-.755,6.912-3.815,6.912-3.815,0,0,.302-5.137,5.137-5.855,4.873-.755,19.717,4.684,25.911,10.425,6.157,5.741,8.952,14.731,3.815,32.37-5.137,17.677-28.971,21.794-28.971,21.794-.907.869-1.926,5.855-1.926,5.855,0,0,9.33,1.209,20.094,6.648,11.369,5.779,12.502,11.898,18.584,14.051,6.912,2.417,15.335,4.419,20.925,6.912s13.598,5.439,13.598,5.439c-.869-3.664,2.417-7.214,2.493-13.975.076-6.761-3.248-11.18-3.248-11.18-7.063,3.739-9.707.642-9.632.076.076-.604,4.797-2.871,6.27-4.57s.302-5.93,1.851-9.103c1.511-3.173,10.803-7.29,12.049-7.29,1.284,0,5.93-.189,5.93-.189,4.193-1.586,9.745-5.515,10.198-5.515,2.266.378,1.586,2.757,1.586,2.757,0,0,4.306-2.38,4.608-2.682.302-.264,2.984.378,2.002,2.606-.982,2.229-3.853,4.117-3.853,4.117l3.966-.227c1.209.944.529,2.72-2.757,4.193-2.417,1.058-9.027,1.851-9.027,1.851,0,0-2.153,2.644-5.703,4.004-3.588,1.36-3.89,2.266-3.702,2.644,0,0,8.612,18.772,11.029,33.503,2.417,14.693,1.889,21.945,0,22.927-19.188,9.858-51.067-2.946-55.977-4.117s-18.621-3.135-22.361-3.135c-3.702,0-14.693,5.099-21.983,10.991-7.252,5.892-19.792,24.136-20.208,28.14-.378,4.042,4.344,9.518,10.991,27.195,6.686,17.639,2.946,30.935,2.795,36.752-.113,5.817,1.058,10.425,6.346,17.941,5.288,7.516,6.081,23.909,6.081,23.909,0,0,2.757-5.175,11.747-11.747,8.952-6.61,23.72-12.804,23.985-13.862s1.851-6.081,1.209-7.516c-.68-1.473-6.874-14.806-5.666-16.242,6.006-7.365,16.619-8.31,22.701-6.874,6.043,1.473,8.574,4.117,22.927,4.495,14.391.378,18.886,8.574,20.208,12.125,1.322,3.588,2.229,8.99.907,11.482-1.322,2.531-8.574,3.588-14.882,2.266-6.346-1.322-17.564,2.115-20.208,2.493-2.644.415-9.896,3.286-16.506,14.504-6.572,11.218-21.756,28.404-25.571,37.091-3.588,8.083-9.594,14.089-10.463,14.957h-.038c-.038-.076-.113-.076-.151-.038,0,0-.453.302-1.284.831s-2.077,1.246-3.739,2.04-3.702,1.662-6.119,2.38c-2.38.718-5.25,1.284-8.159,1.246-.755-.038-1.7-.076-2.342-.151l-1.133-.227-.567-.113-.567-.151c-.378-.151-.755-.264-1.133-.378-.378-.151-.718-.34-1.095-.529-.755-.302-1.435-.793-2.115-1.246-2.795-1.926-5.212-4.721-7.365-7.894s-4.117-6.686-5.93-10.349c-1.813-3.702-3.475-7.479-5.137-11.407-1.473-3.89-3.097-7.705-4.381-11.671-.68-1.926-1.36-3.853-2.04-5.779-.642-1.926-1.284-3.815-1.926-5.703-1.284-3.739-2.493-7.365-3.664-10.803-1.171-3.399-2.266-6.648-3.324-9.669-1.058-2.984-2.002-5.703-2.871-8.121-.907-2.455-1.662-4.533-2.304-6.27-.642-1.737-1.171-3.097-1.549-4.042-.34-.907-.567-1.398-.567-1.398,0-.076-.076-.113-.151-.113-.076.038-.113.113-.113.189,0,0,.113.491.264,1.473.189.982.453,2.417.831,4.23.378,1.851.907,4.004,1.473,6.534.567,2.531,1.246,5.364,2.04,8.423.831,3.059,1.662,6.421,2.72,9.896.491,1.737,1.02,3.551,1.549,5.364.529,1.851,1.171,3.702,1.737,5.59.604,1.889,1.246,3.815,1.851,5.779.189.567.415,1.133.604,1.737.378,16.431-3.437,30.633-3.437,30.633,0,0,3.135-1.7,8.385-2.72,2.908-.567,5.099-.642,6.61-.529,0,.038.038.038.038.076,1.964,3.739,4.079,7.365,6.534,10.614,1.209,1.662,2.568,3.173,3.966,4.608.68.718,1.473,1.36,2.191,2.002.831.567,1.586,1.209,2.417,1.7.869.453,1.662.982,2.568,1.284.453.189.869.415,1.322.529s.907.264,1.36.378l.68.151.642.113c.453.038.907.076,1.36.151h.189l.113.038h.982c.415-.038.793,0,1.209-.038,3.437-.227,6.27-1.02,8.763-1.964,2.417-.982,4.457-2.077,6.043-3.059s2.757-1.851,3.551-2.455,1.209-.982,1.209-.982v-.038c.604.302,3.059,1.511,5.817,2.304,3.173.944,9.367.68,9.367.68,4.759-9.518,9.103-16.393,13.069-16.506,3.966-.151,15.562,13.862,17.413,16.77s3.059,7.365,7.668,10.538c4.608,3.173,11.747,14.655,14.391,20.585,2.644,5.93.907,13.711-1.058,14.655-2.002.907-4.344.113-6.459-1.964-2.115-2.115-8.725-10.576-12.956-11.747-11.558-3.286-21.907-7.403-29.273-9.783-7.403-2.38-21.907-4.495-44.608-4.646-22.701-.189-42.304,3.513-51.747,0-9.405-3.551-22.738-27.875-27.082-71.803-4.306-43.966,3.173-74.183,2.757-79.282-.302-4.23.982-26.969,3.248-41.246.076.038.113,0,.151-.076,0,0,.378-1.209,1.02-3.324.302-1.058.793-2.342,1.284-3.815.453-1.435,1.02-3.097,1.662-4.873.642-1.813,1.284-3.739,2.002-5.817.755-2.04,1.435-4.23,2.229-6.459.793-2.229,1.549-4.57,2.342-6.95.793-2.342,1.586-4.759,2.38-7.139.793-2.417,1.549-4.835,2.342-7.214.378-1.171.718-2.38,1.095-3.551.189-.567.34-1.133.529-1.737s.302-1.246.491-1.851c.529-2.455.718-4.835.793-7.063.076-2.266-.038-4.344-.151-6.27-.151-1.926-.415-3.702-.642-5.212-.264-1.549-.491-2.908-.755-4.004-.227-1.095-.453-1.926-.604-2.493-.189-.604-.264-.907-.264-.907-.038-.076-.076-.113-.151-.113s-.151.076-.151.151v3.513c0,2.229.038,5.364-.113,9.103-.038,1.889-.227,3.89-.378,6.006,0,.113-.038.189-.038.302-1.322-5.061-3.853-11.671-5.855-12.427-9.783-3.702-32.332-14.542-36.978-17.488s-9.216-3.815-12.842-5.212c-3.664-1.398-17.073-11.445-25.496-18.508-8.461-7.063-25.798-21.227-26.062-21.454-.227-.264-4.646,0-7.252-2.72s-4.986-6.912-4.986-6.912c-1.133-.755-2.153-3.097-2.455-3.324-.34-.227-6.912-.529-10.878-1.095-3.928-.529-3.853-3.475-3.248-3.702.642-.227,7.29.378,9.858.755,2.568.415,4.268-.68,3.248-2.229s-7.97-5.855-11.785-7.819c-3.815-2.002-2.871-5.212-2.568-5.439.34-.227,2.568,1.398,5.137,2.342,2.417.869,7.63,3.286,8.272,3.588ZM212.765,159.528c.038-.038.076-.076.038-.151,0-.076-.076-.113-.151-.113,0,0-.604.113-1.586.34-.491.151-1.095.302-1.775.453-.68.227-1.435.378-2.229.604-.831.189-1.737.415-2.568.567-.415.151-.907.189-1.435.264l-.378.076-.189.038h-.189c-.113-.038-.264-.038-.415,0-.755-.113-1.7-.453-2.644-.869-.944-.453-1.889-.982-2.871-1.549-1.926-1.133-3.815-2.417-5.628-3.588-.907-.567-1.775-1.133-2.644-1.662-.453-.264-.869-.529-1.284-.718-.491-.264-.907-.415-1.36-.604-.869-.302-1.662-.529-2.38-.604-.755-.113-1.398-.151-1.889-.151-.529,0-.944.076-1.209.076-.302.038-.415.076-.415.076-.076.038-.151.076-.151.151s.076.151.151.151c0,0,.151,0,.415.038s.642.113,1.133.227c.453.113,1.02.302,1.662.529s1.322.567,2.002.944c.34.227.68.453,1.058.68.378.302.755.567,1.095.869.793.642,1.586,1.284,2.417,1.964,1.662,1.36,3.513,2.795,5.477,4.117,1.02.642,2.04,1.246,3.135,1.775,1.133.491,2.266,1.02,3.664,1.171.378,0,.755,0,1.095-.038h.151l.076-.038h.076l.189-.076.378-.076c.529-.113,1.02-.227,1.549-.415,1.058-.34,1.926-.755,2.72-1.171,3.211-1.586,4.91-3.286,4.91-3.286Z"/>
  <path class="cls-2" d="M222.246,427.629c.038.038.038.113,0,.151-.076-.038-.113-.076-.113-.076l.076-.076h.038Z"/>
  <path class="cls-1" d="M179.451,414.975c-7.252-11.936-14.882-39.169-14.882-39.169.642,3.815.907,7.705.982,11.482-.189-.604-.415-1.171-.604-1.737-.604-1.964-1.246-3.89-1.851-5.779-.567-1.889-1.209-3.739-1.737-5.59-.529-1.813-1.058-3.626-1.549-5.364-1.058-3.475-1.889-6.837-2.72-9.896-.793-3.059-1.473-5.892-2.04-8.423-.567-2.531-1.095-4.684-1.473-6.534-.378-1.813-.642-3.248-.831-4.23-.151-.982-.264-1.473-.264-1.473,0-.076.038-.151.113-.189.076,0,.151.038.151.113,0,0,.227.491.567,1.398.378.944.907,2.304,1.549,4.042.642,1.737,1.398,3.815,2.304,6.27.869,2.417,1.813,5.137,2.871,8.121,1.058,3.022,2.153,6.27,3.324,9.669,1.171,3.437,2.38,7.063,3.664,10.803.642,1.889,1.284,3.777,1.926,5.703.68,1.926,1.36,3.853,2.04,5.779,1.284,3.966,2.908,7.781,4.381,11.671,1.662,3.928,3.324,7.705,5.137,11.407,1.813,3.664,3.777,7.177,5.93,10.349s4.57,5.968,7.365,7.894c.68.453,1.36.944,2.115,1.246.378.189.718.378,1.095.529.378.113.755.227,1.133.378l.567.151.567.113,1.133.227c.642.076,1.586.113,2.342.151,2.908.038,5.779-.529,8.159-1.246,2.417-.718,4.457-1.586,6.119-2.38s2.908-1.511,3.739-2.04,1.284-.831,1.284-.831c.038-.038.113-.038.151.038l-.076.076s.038.038.113.076v.038s-.415.378-1.209.982-1.964,1.473-3.551,2.455-3.626,2.077-6.043,3.059c-2.493.944-5.326,1.737-8.763,1.964-.415.038-.793,0-1.209.038h-.982l-.113-.038h-.189c-.453-.076-.907-.113-1.36-.151l-.642-.113-.68-.151c-.453-.113-.907-.264-1.36-.378s-.869-.34-1.322-.529c-.907-.302-1.7-.831-2.568-1.284-.831-.491-1.586-1.133-2.417-1.7-.718-.642-1.511-1.284-2.191-2.002-1.398-1.435-2.757-2.946-3.966-4.608-2.455-3.248-4.57-6.874-6.534-10.614,0-.038-.038-.038-.038-.076,1.322.076,2.115.264,2.342.302Z"/>
  <path class="cls-1" d="M212.803,159.377c.038.076,0,.113-.038.151,0,0-1.7,1.7-4.91,3.286-.793.415-1.662.831-2.72,1.171-.529.189-1.02.302-1.549.415l-.378.076-.189.076h-.076l-.076.038h-.151c-.34.038-.718.038-1.095.038-1.398-.151-2.531-.68-3.664-1.171-1.095-.529-2.115-1.133-3.135-1.775-1.964-1.322-3.815-2.757-5.477-4.117-.831-.68-1.624-1.322-2.417-1.964-.34-.302-.718-.567-1.095-.869-.378-.227-.718-.453-1.058-.68-.68-.378-1.36-.718-2.002-.944s-1.209-.415-1.662-.529c-.491-.113-.869-.189-1.133-.227s-.415-.038-.415-.038c-.076,0-.151-.076-.151-.151s.076-.113.151-.151c0,0,.113-.038.415-.076.264,0,.68-.076,1.209-.076.491,0,1.133.038,1.889.151.718.076,1.511.302,2.38.604.453.189.869.34,1.36.604.415.189.831.453,1.284.718.869.529,1.737,1.095,2.644,1.662,1.813,1.171,3.702,2.455,5.628,3.588.982.567,1.926,1.095,2.871,1.549.944.415,1.889.755,2.644.869.151-.038.302-.038.415,0h.189l.189-.038.378-.076c.529-.076,1.02-.113,1.435-.264.831-.151,1.737-.378,2.568-.567.793-.227,1.549-.378,2.229-.604.68-.151,1.284-.302,1.775-.453.982-.227,1.586-.34,1.586-.34.076,0,.151.038.151.113Z"/>
  <path class="cls-1" d="M179.451,414.975c-.227-.038-1.02-.227-2.342-.302-1.964-3.664-3.777-7.592-5.477-11.369-1.549-4.004-3.248-7.97-4.608-11.898-.491-1.398-.982-2.757-1.473-4.117-.076-3.777-.34-7.668-.982-11.482,0,0,7.63,27.233,14.882,39.169Z"/>
  <path class="cls-1" d="M140.962,190.198c.113,1.926.227,4.004.151,6.27-.076,2.229-.264,4.608-.793,7.063-.189.604-.302,1.246-.491,1.851s-.34,1.171-.529,1.737c-.378,1.171-.718,2.38-1.095,3.551-.793,2.38-1.549,4.797-2.342,7.214-.793,2.38-1.586,4.797-2.38,7.139-.793,2.38-1.549,4.721-2.342,6.95-.793,2.229-1.473,4.419-2.229,6.459-.718,2.077-1.36,4.004-2.002,5.817-.642,1.775-1.209,3.437-1.662,4.873-.491,1.473-.982,2.757-1.284,3.815-.642,2.115-1.02,3.324-1.02,3.324-.038.076-.076.113-.151.076.453-2.908.944-5.439,1.473-7.403,3.135-11.747,14.466-43.966,14.542-47.214.038-.982-.34-2.946-.944-5.175,0-.113.038-.189.038-.302.151-2.115.34-4.117.378-6.006.151-3.739.113-6.874.113-9.103v-3.513c0-.076.076-.151.151-.151s.113.038.151.113c0,0,.076.302.264.907.151.567.378,1.398.604,2.493.264,1.095.491,2.455.755,4.004.227,1.511.491,3.286.642,5.212Z"/>
  <path class="cls-1" d="M137.865,196.544c.604,2.229.982,4.193.944,5.175-.076,3.248-11.407,35.467-14.542,47.214-.529,1.964-1.02,4.495-1.473,7.403l-.038.038c-.076-.038-.113-.113-.113-.189,0,0,.189-1.246.491-3.475.189-1.095.491-2.417.793-3.928s.718-3.211,1.171-5.061c.453-1.851.944-3.89,1.473-5.968.567-2.115,1.171-4.344,1.813-6.648.604-2.266,1.284-4.646,2.002-7.025.718-2.417,1.435-4.835,2.153-7.252s1.473-4.835,2.229-7.214c.34-1.209.718-2.38,1.058-3.551.189-.567.378-1.171.567-1.737.151-.529.302-1.095.453-1.624.453-2.04.793-4.155,1.02-6.157Z"/>
  <path class="cls-1" d="M61.869.246c13.635,0,24.665,11.029,24.665,24.665s-11.029,24.665-24.665,24.665-24.665-11.029-24.665-24.665S48.271.246,61.869.246Z"/>
</svg>